<svg width="20" height="13" viewBox="0 0 20 13" fill="none" xmlns="http://www.w3.org/2000/svg">
<path fill-rule="evenodd" clip-rule="evenodd" d="M0 1.08333C0 0.48503 0.497467 0 1.11111 0H18.8889C19.5026 0 20 0.48503 20 1.08333C20 1.68164 19.5026 2.16667 18.8889 2.16667H1.11111C0.497467 2.16667 0 1.68164 0 1.08333ZM3.33333 6.5C3.33333 5.90168 3.8308 5.41667 4.44444 5.41667H15.5556C16.1692 5.41667 16.6667 5.90168 16.6667 6.5C16.6667 7.09833 16.1692 7.58333 15.5556 7.58333H4.44444C3.8308 7.58333 3.33333 7.09833 3.33333 6.5ZM6.66667 11.9167C6.66667 11.3183 7.16413 10.8333 7.77778 10.8333H12.2222C12.8359 10.8333 13.3333 11.3183 13.3333 11.9167C13.3333 12.515 12.8359 13 12.2222 13H7.77778C7.16413 13 6.66667 12.515 6.66667 11.9167Z" fill="white"/>
</svg>
