<svg width="18" height="19" viewBox="0 0 18 19" fill="none" xmlns="http://www.w3.org/2000/svg">
<g clip-path="url(#clip0_161_900)">
<path d="M9.02734 17.5711C13.4801 17.5711 17.0898 13.9614 17.0898 9.50861C17.0898 5.05581 13.4801 1.44611 9.02734 1.44611C4.57455 1.44611 0.964844 5.05581 0.964844 9.50861C0.964844 13.9614 4.57455 17.5711 9.02734 17.5711Z" stroke="#F6F6F6" stroke-width="1.25" stroke-linecap="round" stroke-linejoin="round"/>
<path d="M6.28744 10.2974C6.29243 11.1982 5.56628 11.9325 4.66549 11.9375C4.66245 11.9375 4.65942 11.9375 4.65642 11.9375C3.75563 11.9375 3.02539 11.2072 3.02539 10.3064V8.69352C3.02539 7.79274 3.75563 7.0625 4.65642 7.0625C5.5572 7.0625 6.28748 7.7927 6.28748 8.69352C6.28748 8.69656 6.28748 8.6996 6.28748 8.7026" stroke="#F6F6F6" stroke-width="1.25" stroke-linecap="round" stroke-linejoin="round"/>
<path d="M11.7168 11.9195L13.3609 7.06616" stroke="#F6F6F6" stroke-width="1.25" stroke-linecap="round" stroke-linejoin="round"/>
<path d="M14.9355 11.9339L13.3608 7.06616" stroke="#F6F6F6" stroke-width="1.25" stroke-linecap="round" stroke-linejoin="round"/>
<path d="M14.4096 10.3059H12.2632" stroke="#F6F6F6" stroke-width="1.25" stroke-linecap="round" stroke-linejoin="round"/>
<path d="M5.15113 5.65302L4.79199 6.40257" stroke="#F6F6F6" stroke-width="1.25" stroke-linecap="round" stroke-linejoin="round"/>
<path d="M3.29688 3.87665L5.15121 5.65302L8.99965 4.30475L12.8481 5.65302L14.7024 3.87665" stroke="#F6F6F6" stroke-width="1.25" stroke-linecap="round" stroke-linejoin="round"/>
<path d="M13.2073 6.40257L12.8481 5.65302" stroke="#F6F6F6" stroke-width="1.25" stroke-linecap="round" stroke-linejoin="round"/>
<path d="M12.8481 13.347L13.2073 12.5975" stroke="#F6F6F6" stroke-width="1.25" stroke-linecap="round" stroke-linejoin="round"/>
<path d="M14.7024 15.1234L12.8481 13.347L8.99965 14.6953L5.15121 13.347L3.29688 15.1234" stroke="#F6F6F6" stroke-width="1.25" stroke-linecap="round" stroke-linejoin="round"/>
<path d="M4.79248 12.5975L5.15162 13.347" stroke="#F6F6F6" stroke-width="1.25" stroke-linecap="round" stroke-linejoin="round"/>
</g>
<defs>
<clipPath id="clip0_161_900">
<rect width="18" height="18" fill="white" transform="translate(0 0.5)"/>
</clipPath>
</defs>
</svg>
