<svg width="18" height="13" viewBox="0 0 18 13" fill="none" xmlns="http://www.w3.org/2000/svg">
<path d="M15.9385 3.82111C15.814 3.75747 15.6643 3.76888 15.551 3.85067L9.10069 8.50454L4.94658 4.60684C4.80543 4.47444 4.58644 4.47221 4.44259 4.60163L0.979231 7.71881C0.900788 7.78948 0.855957 7.89008 0.855957 7.99562V12.253C0.855957 12.4587 1.02271 12.6254 1.22839 12.6254H15.7689C15.9746 12.6254 16.1413 12.4587 16.1413 12.253V4.15267C16.1413 4.01282 16.063 3.8848 15.9385 3.82111ZM2.49101 11.8806H1.60081V8.16144L2.49101 7.36021V11.8806ZM4.09888 11.8806H3.23587V6.68984L4.09888 5.91309V11.8806ZM5.7067 11.8806H4.84369V5.53172L5.7067 6.34143V11.8806ZM7.31457 11.8806H6.45156V7.04029L7.31457 7.85005V11.8806ZM8.93906 11.8806H8.05943V8.54895L8.81486 9.25778C8.85168 9.29228 8.89409 9.31774 8.93901 9.33459L8.93906 11.8806ZM10.5635 11.8806H9.68387V9.00225L10.5635 8.36754V11.8806ZM12.1881 11.8806H11.3084V7.83012L12.188 7.19546V11.8806H12.1881ZM13.8126 11.8806H12.9329V6.65804L13.8126 6.02333V11.8806ZM15.3965 11.8806H14.5575V5.48596L15.3965 4.88062V11.8806Z" fill="#F6F6F6"/>
<path d="M17.9406 0.530041C17.8736 0.430044 17.7589 0.371572 17.6398 0.374692L15.2797 0.438377C15.1181 0.442753 14.9804 0.556949 14.9464 0.714952C14.9123 0.873001 14.9906 1.03384 15.136 1.10442L15.6875 1.3721L9.1692 6.01988L4.72756 1.9928C4.50699 1.79281 4.17101 1.7916 3.94905 1.98992L0.194265 5.34387C-0.0454398 5.55797 -0.0661561 5.92584 0.147944 6.16549C0.361997 6.40515 0.729818 6.42592 0.969569 6.21182L4.33377 3.20678L8.73462 7.19684C8.8449 7.29679 8.98489 7.34763 9.12558 7.34763C9.24345 7.34763 9.36179 7.31192 9.46332 7.23953L16.3319 2.34205L16.3646 2.85758C16.3748 3.01884 16.4938 3.15222 16.6529 3.18062C16.6735 3.1843 16.6943 3.18611 16.7147 3.18611C16.8515 3.18611 16.9783 3.10585 17.0352 2.97741L17.9699 0.867275C18.0187 0.757269 18.0076 0.629991 17.9406 0.530041Z" fill="#F6F6F6"/>
</svg>
