<svg width="18" height="19" viewBox="0 0 18 19" fill="none" xmlns="http://www.w3.org/2000/svg">
<path d="M16.5 3.16252V5.75002C16.5 5.94893 16.4209 6.1397 16.2803 6.28035C16.1396 6.421 15.9489 6.50002 15.75 6.50002H13.125C13.0162 6.50125 12.9086 6.47883 12.8094 6.43432C12.7102 6.3898 12.6218 6.32425 12.5505 6.2422C12.4792 6.16016 12.4265 6.06359 12.3962 5.95918C12.3659 5.85477 12.3586 5.74501 12.375 5.63752C12.4102 5.45559 12.5085 5.29192 12.6526 5.17531C12.7966 5.0587 12.9772 4.99664 13.1625 5.00002H14.025C13.1514 4.02719 12.0141 3.329 10.7512 2.99029C9.48838 2.65158 8.15433 2.68693 6.91119 3.09205C5.66805 3.49716 4.56932 4.2546 3.7485 5.27233C2.92768 6.29006 2.42011 7.52428 2.28745 8.82502C2.2688 9.01066 2.18162 9.18269 2.04293 9.3075C1.90425 9.43232 1.72403 9.50096 1.53745 9.50002C1.43232 9.50055 1.32825 9.47897 1.232 9.43668C1.13574 9.39438 1.04946 9.33233 0.978736 9.25454C0.908016 9.17674 0.85444 9.08495 0.821486 8.98512C0.788533 8.88528 0.776937 8.77963 0.787452 8.67502C0.944966 7.10044 1.552 5.60438 2.53618 4.36523C3.52036 3.12607 4.84015 2.19611 6.3382 1.68622C7.83624 1.17633 9.44932 1.10804 10.9851 1.48948C12.5209 1.87091 13.9146 2.68599 15 3.83752V3.12502C14.9987 3.01631 15.0211 2.90862 15.0657 2.80943C15.1102 2.71024 15.1757 2.62192 15.2578 2.55058C15.3398 2.47923 15.4364 2.42658 15.5408 2.39627C15.6452 2.36596 15.755 2.35871 15.8625 2.37502C16.0444 2.41029 16.2081 2.50859 16.3247 2.65264C16.4413 2.79668 16.5033 2.97723 16.5 3.16252Z" fill="#F6F6F6"/>
<path d="M1.50013 15.8375V13.25C1.50013 13.0511 1.57915 12.8603 1.7198 12.7197C1.86045 12.579 2.05122 12.5 2.25013 12.5H4.87513C4.98385 12.4988 5.09153 12.5212 5.19072 12.5657C5.28991 12.6102 5.37824 12.6758 5.44958 12.7578C5.52092 12.8399 5.57357 12.9364 5.60388 13.0409C5.6342 13.1453 5.64145 13.255 5.62513 13.3625C5.58986 13.5444 5.49156 13.7081 5.34752 13.8247C5.20348 13.9413 5.02292 14.0034 4.83763 14H3.97513C4.8487 14.9728 5.986 15.671 7.24885 16.0097C8.51171 16.3484 9.84575 16.3131 11.0889 15.908C12.332 15.5029 13.4308 14.7454 14.2516 13.7277C15.0724 12.71 15.58 11.4757 15.7126 10.175C15.7313 9.98937 15.8185 9.81734 15.9571 9.69253C16.0958 9.56772 16.2761 9.49907 16.4626 9.50001C16.5678 9.49948 16.6718 9.52106 16.7681 9.56336C16.8643 9.60565 16.9506 9.6677 17.0213 9.7455C17.0921 9.82329 17.1456 9.91508 17.1786 10.0149C17.2116 10.1148 17.2231 10.2204 17.2126 10.325C17.0551 11.8996 16.4481 13.3956 15.4639 14.6348C14.4797 15.874 13.1599 16.8039 11.6619 17.3138C10.1638 17.8237 8.55077 17.892 7.01499 17.5106C5.47921 17.1291 4.08553 16.314 3.00013 15.1625V15.875C3.00136 15.9837 2.97894 16.0914 2.93442 16.1906C2.88991 16.2898 2.82436 16.3781 2.74231 16.4495C2.66027 16.5208 2.5637 16.5734 2.45929 16.6038C2.35488 16.6341 2.24512 16.6413 2.13763 16.625C1.95569 16.5897 1.79203 16.4914 1.67542 16.3474C1.55881 16.2034 1.49674 16.0228 1.50013 15.8375Z" fill="#F6F6F6"/>
<path d="M9.26253 8.75C7.95003 8.4875 7.95003 8.2625 7.95003 8.075C7.95003 7.8875 8.02503 7.85 8.13753 7.7375C8.34442 7.62628 8.57801 7.57437 8.81253 7.5875C9.24826 7.58372 9.67655 7.70053 10.05 7.925C10.1259 7.98695 10.2144 8.03163 10.3094 8.05594C10.4043 8.08024 10.5034 8.08359 10.5997 8.06575C10.6961 8.0479 10.7874 8.0093 10.8673 7.95262C10.9472 7.89593 11.0138 7.82253 11.0625 7.7375C11.1268 7.66082 11.1742 7.57145 11.2017 7.47523C11.2291 7.37901 11.236 7.27808 11.2218 7.17903C11.2077 7.07997 11.1728 6.98501 11.1195 6.90032C11.0662 6.81563 10.9957 6.74312 10.9125 6.6875C10.5559 6.4674 10.1619 6.31485 9.75003 6.2375V5.375C9.75003 5.17609 9.67102 4.98532 9.53036 4.84467C9.38971 4.70402 9.19895 4.625 9.00003 4.625C8.80112 4.625 8.61036 4.70402 8.4697 4.84467C8.32905 4.98532 8.25003 5.17609 8.25003 5.375V6.2C7.12503 6.3875 6.37503 7.1375 6.37503 8.15C6.37503 9.1625 7.61253 9.9875 8.81253 10.2125C10.0125 10.4375 10.05 10.7 10.05 10.8875C10.05 11.075 9.63753 11.4125 9.11253 11.4125C8.56038 11.4234 8.02003 11.2521 7.57503 10.925C7.4917 10.8696 7.39813 10.8314 7.29982 10.8127C7.20151 10.794 7.10046 10.7952 7.00261 10.8162C6.90476 10.8372 6.8121 10.8775 6.73008 10.9348C6.64806 10.9921 6.57834 11.0653 6.52503 11.15C6.4659 11.2203 6.42175 11.302 6.39529 11.39C6.36883 11.478 6.36062 11.5705 6.37115 11.6617C6.38168 11.753 6.41074 11.8412 6.45655 11.9209C6.50235 12.0005 6.56394 12.07 6.63753 12.125C7.12007 12.4636 7.67015 12.6939 8.25003 12.8V13.625C8.25003 13.8239 8.32905 14.0147 8.4697 14.1553C8.61036 14.296 8.80112 14.375 9.00003 14.375C9.19895 14.375 9.38971 14.296 9.53036 14.1553C9.67102 14.0147 9.75003 13.8239 9.75003 13.625V12.8C10.1614 12.7393 10.5495 12.5712 10.875 12.3125C11.1101 12.1399 11.3007 11.9139 11.4311 11.6531C11.5616 11.3922 11.628 11.1041 11.625 10.8125C11.625 9.425 10.35 8.975 9.26253 8.75Z" fill="#F6F6F6"/>
</svg>
