<svg width="18" height="19" viewBox="0 0 18 19" fill="none" xmlns="http://www.w3.org/2000/svg">
<path d="M9.8266 12.1019C11.7739 12.1019 13.3524 10.5234 13.3524 8.57611C13.3524 6.62886 11.7739 5.05029 9.8266 5.05029C7.87934 5.05029 6.30078 6.62886 6.30078 8.57611C6.30078 10.5234 7.87934 12.1019 9.8266 12.1019Z" stroke="#F6F6F6" stroke-width="0.761719" stroke-linecap="round" stroke-linejoin="round"/>
<path d="M9.82652 5.05029C8.82422 5.78084 8.15625 7.08654 8.15625 8.57576C8.15625 10.065 8.82422 11.3714 9.82758 12.1019C10.8309 11.3714 11.4989 10.0657 11.4989 8.57576C11.4989 7.08584 10.8299 5.78084 9.82652 5.05029Z" stroke="#F6F6F6" stroke-width="0.761719" stroke-linecap="round" stroke-linejoin="round"/>
<path d="M9.82658 15.125V13.2772C8.57978 13.2772 7.38403 12.7819 6.50241 11.9003C5.62078 11.0186 5.12549 9.8229 5.12549 8.57609C5.12549 7.32929 5.62078 6.13354 6.50241 5.25192C7.38403 4.37029 8.57978 3.875 9.82658 3.875V5.05027" stroke="#F6F6F6" stroke-width="0.761719" stroke-linecap="round" stroke-linejoin="round"/>
<path d="M11.2958 15.125H8.35742" stroke="#F6F6F6" stroke-width="0.761719" stroke-linecap="round" stroke-linejoin="round"/>
<path d="M13.3524 8.57611H6.30078" stroke="#F6F6F6" stroke-width="0.761719" stroke-linecap="round" stroke-linejoin="round"/>
</svg>
