<svg width="18" height="19" viewBox="0 0 18 19" fill="none" xmlns="http://www.w3.org/2000/svg">
<path d="M9.28107 14.2514V13.6912C11.1666 13.7468 12.6521 14.3515 12.6521 15.0901C12.6521 15.8658 11.0175 16.5301 9.00038 16.5301C6.98326 16.5301 5.34863 15.8658 5.34863 15.0901C5.34863 14.3515 6.8342 13.7463 8.71913 13.6912V14.2514C7.1447 14.2902 5.91057 14.6508 5.91057 15.0901C5.91057 15.5553 7.29376 16.003 9.00038 16.003C10.7064 16.003 12.0896 15.5553 12.0896 15.0901C12.0891 14.6508 10.8555 14.2908 9.28107 14.2514ZM5.91507 5.55966C5.91507 3.8536 7.33313 2.46985 9.04032 2.46985C10.7469 2.46985 12.1301 3.8536 12.1301 5.55966C12.1301 7.0261 11.1075 8.25179 9.73613 8.56791L8.99982 16.0036L8.26126 8.5471C6.93263 8.20116 5.91507 6.99685 5.91507 5.55966ZM8.99982 4.73222C8.99982 4.26647 8.62238 3.8896 8.1572 3.8896C7.69201 3.8896 7.31401 4.26647 7.31401 4.73222C7.31401 5.19741 7.69145 5.57485 8.1572 5.57485C8.62295 5.57485 8.99982 5.19797 8.99982 4.73222Z" fill="#F6F6F6"/>
</svg>
