<svg width="18" height="19" viewBox="0 0 18 19" fill="none" xmlns="http://www.w3.org/2000/svg">
<path d="M17.6087 7.34783H16.3145C16.1604 6.82524 15.9527 6.32382 15.6943 5.85105L16.6103 4.93191C16.7627 4.77895 16.7625 4.53141 16.6096 4.3788L14.1169 1.88995C13.964 1.7373 13.7165 1.73738 13.5637 1.89023L12.6484 2.80576C12.1752 2.54715 11.674 2.33933 11.1521 2.18539V0.891304C11.1521 0.675187 10.9769 0.5 10.7608 0.5H7.23909C7.02297 0.5 6.84779 0.675187 6.84779 0.891304V2.18547C6.32575 2.33944 5.82453 2.54727 5.35152 2.80584L4.43622 1.89027C4.28349 1.7375 4.03583 1.73738 3.88299 1.88999L1.39038 4.3788C1.23754 4.53137 1.23727 4.77903 1.38972 4.93199L2.30603 5.85109C2.04738 6.32425 1.83948 6.82559 1.68547 7.34783H0.391304C0.175187 7.34783 0 7.52301 0 7.73913V11.2609C0 11.4769 0.175187 11.6522 0.391304 11.6522H1.68543C1.83937 12.1741 2.04715 12.6753 2.3058 13.1484L1.39027 14.0637C1.31686 14.1371 1.27557 14.2367 1.27557 14.3404C1.27557 14.4442 1.31682 14.5438 1.39019 14.6172L3.88283 17.1098C4.03568 17.2626 4.28337 17.2626 4.43626 17.1098L5.35156 16.1945C5.82421 16.4528 6.32547 16.6605 6.84787 16.8145V18.1087C6.84787 18.3248 7.02305 18.5 7.23917 18.5H10.7609C10.977 18.5 11.1522 18.3248 11.1522 18.1087V16.8146C11.6747 16.6606 12.1761 16.4528 12.649 16.1943L13.5681 17.1103C13.721 17.2627 13.9687 17.2624 14.1212 17.1096L16.61 14.6169C16.7627 14.4641 16.7626 14.2165 16.6099 14.0637L15.6946 13.1484C15.9529 12.6757 16.1606 12.1744 16.3146 11.6521H17.6087C17.8248 11.6521 18 11.4769 18 11.2608V7.73909C18 7.52301 17.8248 7.34783 17.6087 7.34783ZM17.2174 10.8696H16.016C15.8368 10.8696 15.6804 10.9913 15.6366 11.1652C15.4712 11.8205 15.2136 12.4419 14.8709 13.012C14.7783 13.1659 14.8025 13.3632 14.9296 13.4903L15.78 14.3407L13.8436 16.28L12.9898 15.4291C12.8627 15.3025 12.6658 15.2784 12.512 15.3709C11.9419 15.7136 11.3206 15.9712 10.6652 16.1366C10.4914 16.1804 10.3696 16.3368 10.3696 16.516V17.7174H7.63047V16.516C7.63047 16.3368 7.50874 16.1805 7.33496 16.1366C6.67925 15.9711 6.0579 15.7134 5.48808 15.3709C5.33407 15.2784 5.13681 15.3025 5.00975 15.4296L4.15953 16.2798L2.2203 14.3406L3.0708 13.4904C3.19786 13.3633 3.22208 13.1661 3.1295 13.012C2.78636 12.4412 2.52865 11.8198 2.36344 11.1652C2.31957 10.9914 2.16325 10.8696 1.98403 10.8696H0.782609V8.13047H1.98403C2.16325 8.13047 2.31953 8.00874 2.3634 7.83496C2.5288 7.18 2.78652 6.55864 3.1295 5.98808C3.22196 5.83426 3.19793 5.63728 3.07127 5.51018L2.22003 4.6564L4.15925 2.72014L5.00967 3.57088C5.13681 3.69801 5.33406 3.72212 5.48804 3.62957C6.0586 3.2866 6.67996 3.02884 7.33492 2.86348C7.5087 2.81961 7.63043 2.66333 7.63043 2.48411V1.28261H10.3696V2.48403C10.3696 2.66325 10.4913 2.81957 10.6652 2.86344C11.3198 3.02865 11.9412 3.2864 12.512 3.6295C12.6659 3.722 12.8633 3.69782 12.9903 3.5708L13.8407 2.72007L15.78 4.65636L14.9291 5.51018C14.8024 5.63724 14.7784 5.83422 14.8709 5.988C15.2134 6.55786 15.4711 7.17917 15.6366 7.83488C15.6805 8.00866 15.8368 8.1304 16.016 8.1304H17.2174V10.8696Z" fill="#F6F6F6"/>
<path d="M8.99989 4.02173C6.08706 4.02173 3.71729 6.39151 3.71729 9.30434C3.71729 12.2172 6.08706 14.5869 8.99989 14.5869C11.9127 14.5869 14.2825 12.2172 14.2825 9.30434C14.2825 6.39147 11.9128 4.02173 8.99989 4.02173ZM8.99989 13.8043C6.51859 13.8043 4.49989 11.7856 4.49989 9.30434C4.49989 6.82304 6.51859 4.80434 8.99989 4.80434C11.4812 4.80434 13.4999 6.82304 13.4999 9.30434C13.4999 11.7856 11.4812 13.8043 8.99989 13.8043Z" fill="#F6F6F6"/>
<path d="M9.58689 7.34782H9.39124V6.76086H8.60863V7.34782H8.41298C7.98145 7.34782 7.63037 7.6989 7.63037 8.13043V8.91304C7.63037 9.34457 7.98145 9.69565 8.41298 9.69565H8.99994H9.58689V10.4783H8.41298V10.087H7.63037V10.4783C7.63037 10.9098 7.98145 11.2609 8.41298 11.2609H8.60863V11.8478H9.39124V11.2609H9.58689C10.0184 11.2609 10.3695 10.9098 10.3695 10.4783V9.69565C10.3695 9.26412 10.0184 8.91304 9.58689 8.91304H8.99994H8.41298V8.13043H9.58689V8.52173H10.3695V8.13043C10.3695 7.6989 10.0184 7.34782 9.58689 7.34782Z" fill="#F6F6F6"/>
<path d="M12.3261 8.91302H11.5435V9.69563H12.3261V8.91302Z" fill="#F6F6F6"/>
<path d="M6.45644 8.91302H5.67383V9.69563H6.45644V8.91302Z" fill="#F6F6F6"/>
</svg>
