<svg width="15" height="19" viewBox="0 0 15 19" fill="none" xmlns="http://www.w3.org/2000/svg">
<g clip-path="url(#clip0_2023_71)">
<path d="M2.375 10.25C3.02813 10.25 3.5625 9.575 3.5625 8.75C3.5625 7.925 3.02813 7.25 2.375 7.25C1.72188 7.25 1.1875 7.925 1.1875 8.75C1.1875 9.575 1.72188 10.25 2.375 10.25ZM3.04594 11.075C2.82625 11.03 2.60656 11 2.375 11C1.78719 11 1.22906 11.1575 0.724375 11.435C0.285 11.675 0 12.215 0 12.8225V14H2.67188V12.7925C2.67188 12.17 2.80844 11.585 3.04594 11.075ZM11.875 10.25C12.5281 10.25 13.0625 9.575 13.0625 8.75C13.0625 7.925 12.5281 7.25 11.875 7.25C11.2219 7.25 10.6875 7.925 10.6875 8.75C10.6875 9.575 11.2219 10.25 11.875 10.25ZM14.25 12.8225C14.25 12.215 13.965 11.675 13.5256 11.435C13.0209 11.1575 12.4628 11 11.875 11C11.6434 11 11.4238 11.03 11.2041 11.075C11.4416 11.585 11.5781 12.17 11.5781 12.7925V14H14.25V12.8225ZM9.6425 10.7375C8.94781 10.3475 8.09281 10.0625 7.125 10.0625C6.15719 10.0625 5.30219 10.355 4.6075 10.7375C3.96625 11.0975 3.5625 11.9075 3.5625 12.7925V14H10.6875V12.7925C10.6875 11.9075 10.2838 11.0975 9.6425 10.7375ZM4.79156 12.5C4.845 12.3275 4.86875 12.2075 5.33188 11.9825C5.90781 11.6975 6.51344 11.5625 7.125 11.5625C7.73656 11.5625 8.34219 11.6975 8.91813 11.9825C9.37531 12.2075 9.39906 12.3275 9.45844 12.5H4.79156ZM7.125 6.5C7.45156 6.5 7.71875 6.8375 7.71875 7.25C7.71875 7.6625 7.45156 8 7.125 8C6.79844 8 6.53125 7.6625 6.53125 7.25C6.53125 6.8375 6.79844 6.5 7.125 6.5ZM7.125 5C6.13938 5 5.34375 6.005 5.34375 7.25C5.34375 8.495 6.13938 9.5 7.125 9.5C8.11063 9.5 8.90625 8.495 8.90625 7.25C8.90625 6.005 8.11063 5 7.125 5Z" fill="white"/>
</g>
<defs>
<clipPath id="clip0_2023_71">
<rect width="14.25" height="18" fill="white" transform="translate(0 0.5)"/>
</clipPath>
</defs>
</svg>
