<svg width="18" height="13" viewBox="0 0 18 13" fill="none" xmlns="http://www.w3.org/2000/svg">
<path d="M17.801 2.42861C17.7976 2.42575 17.793 2.42346 17.7907 2.42059C17.6361 2.26823 17.4218 2.20809 17.2237 2.24074L14.9313 2.27052C14.5688 2.27568 14.2789 2.57296 14.2835 2.93553C14.2881 3.29696 14.5625 3.56675 14.948 3.58279L15.7155 3.57305L14.5922 4.6963C13.9244 4.20369 13.1202 3.93735 12.2742 3.93735C11.2282 3.93735 10.2448 4.3446 9.50528 5.08408C7.97936 6.61057 7.97936 9.09477 9.50528 10.6213C10.2448 11.3607 11.2282 11.768 12.2742 11.768C13.3195 11.768 14.3036 11.3607 15.043 10.6213C16.3948 9.26832 16.5512 7.16446 15.5076 5.64026L16.6869 4.46432V5.32293C16.6869 5.68551 16.9814 5.97878 17.3434 5.97878C17.7071 5.97878 17.9998 5.68494 17.9998 5.32293V2.89429C17.9998 2.72016 17.9259 2.55176 17.801 2.42861ZM14.1151 9.69334C13.1322 10.6762 11.4178 10.6762 10.4338 9.69334C9.41879 8.67892 9.41879 7.02699 10.4338 6.012C10.9258 5.52054 11.5794 5.24961 12.2747 5.24961C12.9707 5.24961 13.6231 5.52054 14.1163 6.012C15.1307 7.02642 15.1307 8.67892 14.1151 9.69334Z" fill="#F6F6F6"/>
<path d="M3.91733 0.672424C1.7579 0.672424 0 2.42861 0 4.58803C0 6.50116 1.38329 8.0981 3.19389 8.43777V9.62116H2.16745C1.80487 9.62116 1.5116 9.91557 1.5116 10.2776C1.5116 10.6396 1.80487 10.934 2.16745 10.934H3.19389V11.6712C3.19389 12.0338 3.48831 12.3276 3.85088 12.3276C4.21346 12.3276 4.50845 12.0326 4.50845 11.6712V10.934H5.58644C5.94902 10.934 6.24286 10.6384 6.24286 10.2776C6.24286 9.91386 5.94902 9.62116 5.58644 9.62116H4.50845V8.45896C6.39351 8.17257 7.83236 6.54584 7.83236 4.58803C7.83236 2.42861 6.07675 0.672424 3.91733 0.672424ZM3.91733 7.19023C2.48134 7.19023 1.31399 6.0223 1.31399 4.58689C1.31399 3.15147 2.48134 1.98355 3.91733 1.98355C5.35217 1.98355 6.5201 3.15147 6.5201 4.58689C6.5201 6.0223 5.35275 7.19023 3.91733 7.19023Z" fill="#F6F6F6"/>
</svg>
