<svg width="18" height="18" viewBox="0 0 18 18" fill="none" xmlns="http://www.w3.org/2000/svg">
<path fill-rule="evenodd" clip-rule="evenodd" d="M9.00093 0.286377C6.68339 0.286377 6.39255 0.29651 5.48232 0.337933C4.57386 0.379533 3.95377 0.523357 3.41118 0.734382C2.84993 0.952339 2.37384 1.2439 1.89952 1.71839C1.42485 2.19271 1.13329 2.6688 0.914624 3.22987C0.703066 3.77263 0.559065 4.39291 0.518175 5.30101C0.477464 6.21124 0.466797 6.50226 0.466797 8.8198C0.466797 11.1373 0.477108 11.4273 0.518353 12.3375C0.560131 13.246 0.703955 13.8661 0.914802 14.4087C1.13294 14.9699 1.4245 15.446 1.89899 15.9203C2.37313 16.395 2.84922 16.6873 3.41012 16.9052C3.95306 17.1162 4.57333 17.2601 5.4816 17.3017C6.39184 17.3431 6.68251 17.3532 8.99986 17.3532C11.3176 17.3532 11.6075 17.3431 12.5178 17.3017C13.4262 17.2601 14.047 17.1162 14.59 16.9052C15.151 16.6873 15.6264 16.395 16.1006 15.9203C16.5752 15.446 16.8668 14.9699 17.0855 14.4088C17.2952 13.8661 17.4392 13.2458 17.4819 12.3377C17.5228 11.4275 17.5335 11.1373 17.5335 8.8198C17.5335 6.50226 17.5228 6.21142 17.4819 5.30118C17.4392 4.39273 17.2952 3.77264 17.0855 3.23005C16.8668 2.6688 16.5752 2.19271 16.1006 1.71839C15.6259 1.24372 15.1512 0.952162 14.5894 0.734382C14.0454 0.523357 13.425 0.379533 12.5165 0.337933C11.6063 0.29651 11.3165 0.286377 8.99826 0.286377H9.00093ZM8.23537 1.82415C8.46258 1.82379 8.71609 1.82415 9.00089 1.82415C11.2793 1.82415 11.5494 1.83232 12.4491 1.87321C13.2811 1.91126 13.7327 2.05028 14.0335 2.16708C14.4317 2.32175 14.7156 2.50664 15.0141 2.80531C15.3128 3.10398 15.4977 3.38843 15.6527 3.78666C15.7695 4.0871 15.9087 4.53866 15.9466 5.37067C15.9875 6.27024 15.9963 6.54046 15.9963 8.81782C15.9963 11.0952 15.9875 11.3654 15.9466 12.265C15.9085 13.097 15.7695 13.5485 15.6527 13.849C15.498 14.2472 15.3128 14.5308 15.0141 14.8293C14.7154 15.1279 14.4319 15.3128 14.0335 15.4675C13.733 15.5848 13.2811 15.7235 12.4491 15.7615C11.5495 15.8024 11.2793 15.8113 9.00089 15.8113C6.72229 15.8113 6.45224 15.8024 5.55268 15.7615C4.72067 15.7231 4.26911 15.5841 3.96813 15.4673C3.5699 15.3126 3.28546 15.1278 2.98679 14.8291C2.68812 14.5304 2.50323 14.2467 2.3482 13.8483C2.2314 13.5478 2.0922 13.0963 2.05433 12.2643C2.01344 11.3647 2.00527 11.0945 2.00527 8.81569C2.00527 6.53691 2.01344 6.2681 2.05433 5.36854C2.09238 4.53653 2.2314 4.08497 2.3482 3.78417C2.50287 3.38594 2.68812 3.10149 2.98679 2.80282C3.28546 2.50415 3.5699 2.31926 3.96813 2.16424C4.26893 2.0469 4.72067 1.90824 5.55268 1.87001C6.33989 1.83446 6.64496 1.82379 8.23537 1.82201V1.82415ZM13.556 3.24105C12.9906 3.24105 12.532 3.69919 12.532 4.26471C12.532 4.83005 12.9906 5.28872 13.556 5.28872C14.1213 5.28872 14.58 4.83005 14.58 4.26471C14.58 3.69937 14.1213 3.24105 13.556 3.24105ZM9.00095 4.43751C6.58083 4.43751 4.61868 6.39966 4.61868 8.81978C4.61868 11.2399 6.58083 13.2012 9.00095 13.2012C11.4211 13.2012 13.3825 11.2399 13.3825 8.81978C13.3825 6.39966 11.4211 4.43751 9.00095 4.43751ZM9.00091 5.9753C10.5718 5.9753 11.8454 7.24874 11.8454 8.81978C11.8454 10.3906 10.5718 11.6642 9.00091 11.6642C7.42987 11.6642 6.15644 10.3906 6.15644 8.81978C6.15644 7.24874 7.42987 5.9753 9.00091 5.9753Z" fill="#0ED4FA"/>
</svg>
