<svg width="18" height="17" viewBox="0 0 18 17" fill="none" xmlns="http://www.w3.org/2000/svg">
<path d="M4.54597 2.7015C4.52244 1.6333 3.75857 0.819702 2.51815 0.819702C1.27774 0.819702 0.466797 1.6333 0.466797 2.7015C0.466797 3.74757 1.25377 4.5846 2.47108 4.5846H2.49426C3.75857 4.5846 4.54597 3.74757 4.54597 2.7015Z" fill="#0ED4FA"/>
<path d="M4.30716 6.07166H0.681213V16.9661H4.30716V6.07166Z" fill="#0ED4FA"/>
<path d="M13.2089 5.8158C15.5949 5.8158 17.3837 7.37322 17.3837 10.7195L17.3836 16.9661H13.7578V11.1375C13.7578 9.67354 13.2331 8.67454 11.9205 8.67454C10.9187 8.67454 10.3221 9.34801 10.06 9.99849C9.96413 10.2316 9.94059 10.5564 9.94059 10.882V16.9664H6.31421C6.31421 16.9664 6.362 7.09419 6.31421 6.07191H9.94059V7.61502C10.4218 6.87322 11.2838 5.8158 13.2089 5.8158Z" fill="#0ED4FA"/>
</svg>
