<svg width="16" height="14" viewBox="0 0 16 14" fill="none" xmlns="http://www.w3.org/2000/svg">
<path fill-rule="evenodd" clip-rule="evenodd" d="M7.5208 3.82468L7.55438 4.37831L6.99479 4.31052C4.95791 4.05065 3.17843 3.16935 1.66756 1.68922L0.928908 0.954809L0.73865 1.49715C0.33575 2.70611 0.593158 3.98286 1.43253 4.84156C1.8802 5.31611 1.77948 5.3839 1.00725 5.10143C0.73865 5.01104 0.503625 4.94325 0.481242 4.97715C0.4029 5.05624 0.6715 6.08442 0.884142 6.49117C1.17513 7.05611 1.76828 7.60974 2.4174 7.9374L2.96579 8.19727L2.31668 8.20857C1.68994 8.20857 1.66756 8.21987 1.73471 8.45714C1.95854 9.19156 2.84268 9.97117 3.82755 10.3101L4.52143 10.5474L3.91708 10.909C3.02175 11.4287 1.96973 11.7225 0.917717 11.7451C0.414092 11.7564 0 11.8016 0 11.8355C0 11.9484 1.36538 12.5812 2.15999 12.8297C4.54382 13.5642 7.37531 13.2478 9.50173 11.9936C11.0126 11.101 12.5235 9.32714 13.2286 7.60974C13.6091 6.69455 13.9896 5.02234 13.9896 4.22013C13.9896 3.70039 14.0232 3.6326 14.6499 3.01117C15.0192 2.64961 15.3662 2.25416 15.4333 2.14117C15.5452 1.9265 15.534 1.9265 14.9633 2.11858C14.012 2.45754 13.8777 2.41234 14.3477 1.9039C14.6947 1.54234 15.1088 0.887017 15.1088 0.694939C15.1088 0.661043 14.9409 0.717537 14.7506 0.819225C14.5492 0.932212 14.1015 1.10169 13.7658 1.20338L13.1614 1.39546L12.613 1.0226C12.3108 0.819225 11.8856 0.593251 11.6617 0.525459C11.0909 0.367277 10.218 0.389875 9.70318 0.570654C8.30422 1.0791 7.42008 2.38974 7.5208 3.82468Z" fill="#0ED4FA"/>
</svg>
