<svg width="18" height="14" viewBox="0 0 18 14" fill="none" xmlns="http://www.w3.org/2000/svg">
<path fill-rule="evenodd" clip-rule="evenodd" d="M15.6679 1.31928C16.4022 1.52079 16.9805 2.11454 17.1768 2.86854C17.5335 4.23509 17.5335 7.0864 17.5335 7.0864C17.5335 7.0864 17.5335 9.93761 17.1768 11.3043C16.9805 12.0583 16.4022 12.652 15.6679 12.8536C14.3371 13.2197 9.00013 13.2197 9.00013 13.2197C9.00013 13.2197 3.66321 13.2197 2.3323 12.8536C1.59795 12.652 1.01962 12.0583 0.823354 11.3043C0.466797 9.93761 0.466797 7.0864 0.466797 7.0864C0.466797 7.0864 0.466797 4.23509 0.823354 2.86854C1.01962 2.11454 1.59795 1.52079 2.3323 1.31928C3.66321 0.953064 9.00013 0.953064 9.00013 0.953064C9.00013 0.953064 14.3371 0.953064 15.6679 1.31928ZM7.40015 4.68634V10.0197L11.6668 7.35311L7.40015 4.68634Z" fill="#0ED4FA"/>
</svg>
