<svg width="20" height="20" viewBox="0 0 20 20" fill="none" xmlns="http://www.w3.org/2000/svg">
<path d="M9.10544 1.10079C9.70462 0.393648 10.7953 0.393648 11.3944 1.10079L12.1164 1.95296C12.4838 2.38659 13.0647 2.57535 13.6168 2.44048L14.7018 2.17544C15.6022 1.9555 16.4845 2.59659 16.5536 3.52083L16.6368 4.63463C16.6792 5.20139 17.0382 5.69555 17.5641 5.91096L18.5977 6.33428C19.4554 6.68553 19.7924 7.72286 19.305 8.51118L18.7177 9.46113C18.4188 9.94458 18.4188 10.5554 18.7177 11.0388L19.305 11.9888C19.7924 12.7771 19.4554 13.8144 18.5977 14.1657L17.5641 14.589C17.0382 14.8044 16.6792 15.2986 16.6368 15.8653L16.5536 16.9791C16.4845 17.9034 15.6022 18.5445 14.7018 18.3246L13.6168 18.0595C13.0647 17.9246 12.4838 18.1134 12.1164 18.547L11.3944 19.3992C10.7953 20.1063 9.70462 20.1063 9.10544 19.3992L8.38349 18.547C8.01607 18.1134 7.43519 17.9246 6.88304 18.0595L5.79808 18.3246C4.89773 18.5445 4.01534 17.9034 3.94629 16.9791L3.86309 15.8653C3.82074 15.2986 3.46172 14.8044 2.93577 14.589L1.90221 14.1657C1.04453 13.8144 0.70749 12.7771 1.19489 11.9888L1.78224 11.0388C2.08112 10.5554 2.08112 9.94458 1.78224 9.46113L1.19489 8.51118C0.70749 7.72286 1.04453 6.68553 1.90221 6.33428L2.93577 5.91096C3.46172 5.69555 3.82074 5.20139 3.86309 4.63463L3.94629 3.52083C4.01534 2.59659 4.89773 1.9555 5.79808 2.17544L6.88304 2.44048C7.43519 2.57535 8.01607 2.38659 8.38349 1.95296L9.10544 1.10079Z" fill="#2081E2"/>
<path d="M9.125 12.2188L7.15625 10.25L6.5 10.9062L9.125 13.5312L14.75 7.90625L14.0938 7.25L9.125 12.2188Z" fill="white" stroke="white" stroke-width="0.75"/>
</svg>
