<svg width="113" height="29" viewBox="0 0 113 29" fill="none" xmlns="http://www.w3.org/2000/svg">
<path d="M29.082 20.6508L9.7526 1.87854C8.25128 0.376759 5.81165 -0.0925479 3.65351 0.56448C1.49537 1.22151 0.0878906 2.91101 0.0878906 4.88209V28.3474H6.93763V8.07337L26.2671 26.7517C27.2992 27.7842 28.8005 28.3474 30.3957 28.3474C31.0525 28.3474 31.7093 28.2535 32.3661 28.0658C34.5243 27.4088 35.9318 25.7193 35.9318 23.7482V0.658341H29.082V20.6508ZM40.7172 7.69793V27.7842H47.5669V7.69793C47.5669 6.85318 48.4114 6.19615 49.3498 6.19615H72.5263V0.376759H49.3498C44.5643 0.376759 40.7172 3.6619 40.7172 7.69793Z" fill="white"/>
<rect x="50.7764" y="12.0402" width="22.7934" height="6.38215" fill="white"/>
<rect x="78.1279" y="0.187714" width="34.6459" height="6.38215" fill="white"/>
<rect x="91.8037" y="28.4514" width="27.4432" height="6.83801" transform="rotate(-90 91.8037 28.4514)" fill="white"/>
</svg>
