<svg width="18" height="18" viewBox="0 0 18 18" fill="none" xmlns="http://www.w3.org/2000/svg">
<path fill-rule="evenodd" clip-rule="evenodd" d="M17.0303 0.789393C17.2341 0.993121 17.3031 1.29555 17.2079 1.56749L11.9579 16.5675C11.8563 16.8577 11.5878 17.0566 11.2806 17.0691C10.9733 17.0816 10.6895 16.9053 10.5646 16.6243L7.6818 10.1379L1.1954 7.25508C0.91439 7.13019 0.738092 6.84641 0.750627 6.53915C0.763163 6.23189 0.961991 5.96342 1.25224 5.86183L16.2522 0.611829C16.5242 0.51665 16.8266 0.585665 17.0303 0.789393ZM9.14456 9.73582L11.1671 14.2864L14.7064 4.17399L9.14456 9.73582ZM13.6457 3.11333L3.53331 6.65268L8.0839 8.67516L13.6457 3.11333Z" fill="#0ED4FA"/>
</svg>
