<svg width="20" height="20" viewBox="0 0 20 20" fill="none" xmlns="http://www.w3.org/2000/svg">
<path d="M4.30519 11.011C5.21883 11.9316 6.32826 12.3919 7.63347 12.3919C8.93867 12.3919 10.0481 11.9316 10.9617 11.011C11.8754 10.0905 12.3322 8.97263 12.3322 7.65754C12.3322 6.34245 11.8754 5.22462 10.9617 4.30405C10.0481 3.38348 8.93867 2.9232 7.63347 2.9232C6.32826 2.9232 5.21883 3.38348 4.30519 4.30405C3.39155 5.22462 2.93472 6.34245 2.93472 7.65754C2.93472 8.97263 3.39155 10.0905 4.30519 11.011ZM13.8985 12.3919L19.0867 17.6194L17.5204 19.1975L12.3322 13.97V13.1316L12.0385 12.8357C10.7986 13.9207 9.33023 14.4632 7.63347 14.4632C5.74092 14.4632 4.12572 13.8056 2.78789 12.4905C1.48268 11.1754 0.830078 9.56443 0.830078 7.65754C0.830078 5.75065 1.48268 4.13966 2.78789 2.82457C4.12572 1.4766 5.74092 0.802612 7.63347 0.802612C9.52602 0.802612 11.1249 1.4766 12.4301 2.82457C13.7353 4.13966 14.3879 5.75065 14.3879 7.65754C14.3879 8.34796 14.2248 9.13702 13.8985 10.0247C13.5722 10.8795 13.1969 11.5699 12.7727 12.096L13.0664 12.3919H13.8985Z" fill="white"/>
</svg>
